<?xml version="1.0" encoding="UTF-8"?>
<svg id="Layer_2" data-name="Layer 2" xmlns="http://www.w3.org/2000/svg" viewBox="0 0 1102.96 617.97">
  <defs>
    <style>
      .cls-1 {
        fill: #e75262;
      }

      .cls-2 {
        fill: #4d5c7c;
      }

      .cls-3 {
        fill: #8573b0;
      }

      .cls-4 {
        fill: #fff;
      }

      .cls-5 {
        fill: #d66ca5;
      }

      .cls-6 {
        fill: #065883;
      }

      .cls-7 {
        fill: #085782;
      }

      .cls-8 {
        fill: #f2dc0c;
      }
    </style>
  </defs>
  <g id="Layer_1-2" data-name="Layer 1">
    <g>
      <g>
        <g>
          <g>
            <polygon class="cls-7" points="0 151.84 41.58 151.84 41.58 282.29 80.07 282.29 80.07 151.84 121.65 151.84 121.65 115.67 0 115.67 0 151.84"/>
            <polygon class="cls-7" points="256.97 246.12 183.37 246.12 183.37 216.32 246.15 216.32 246.15 180.37 183.37 180.37 183.37 151.84 256.97 151.84 256.97 115.67 144.88 115.67 144.88 282.29 256.97 282.29 256.97 246.12"/>
            <path class="cls-7" d="M405.19,221.52h-38.49s-1.44,5.97-1.44,5.97c-1.49,6.2-4.16,11.05-8.17,14.83-3.62,3.42-8.53,5.08-15.01,5.08-3.49,0-6.59-.6-9.46-1.82-2.87-1.22-5.21-2.81-7.11-4.81-1.35-1.45-2.47-3.04-3.34-4.73-.85-1.64-1.52-3.85-2.02-6.53-.58-3.16-1-7.15-1.26-11.87-.27-4.88-.41-11.16-.41-18.65,0-7.49.14-13.77.41-18.66.26-4.7.68-8.7,1.26-11.84.5-2.7,1.18-4.91,2.02-6.55.86-1.68,1.99-3.27,3.29-4.66,1.95-2.06,4.29-3.65,7.15-4.88,2.88-1.22,5.98-1.81,9.47-1.81,6.45,0,11.32,1.65,14.86,5.04,3.96,3.79,6.61,8.65,8.1,14.87l1.44,5.97h38.77s-1.63-9.16-1.63-9.16c-3-16.94-10.13-30.14-21.17-39.23-11-9.06-24.59-13.66-40.38-13.66-8.92,0-17.27,1.59-24.83,4.73-7.57,3.14-14.41,7.73-20.34,13.66-4.28,4.27-7.65,8.91-10,13.8-2.27,4.69-3.94,9.83-4.98,15.29-1,5.21-1.58,11.02-1.73,17.28-.15,5.93-.21,12.53-.21,19.81,0,7.29.07,13.89.21,19.81.15,6.26.73,12.08,1.73,17.29,1.04,5.45,2.72,10.59,4.98,15.28,2.36,4.89,5.72,9.54,9.99,13.79,5.94,5.94,12.79,10.54,20.34,13.67,7.57,3.14,15.93,4.74,24.84,4.74,7.57,0,14.85-1.13,21.64-3.36,6.92-2.28,13.2-5.76,18.67-10.33,5.46-4.56,10.08-10.24,13.71-16.87h0c3.59-6.54,6.12-14.07,7.53-22.38l1.55-9.1Z"/>
            <polygon class="cls-7" points="515.65 180.15 469.94 180.15 469.94 115.67 431.44 115.67 431.44 282.29 469.94 282.29 469.94 216.32 515.65 216.32 515.65 282.29 554.15 282.29 554.15 115.67 515.65 115.67 515.65 180.15"/>
            <polygon class="cls-7" points="184.25 315.62 145.76 315.62 145.76 482.23 257.01 482.23 257.01 446.07 184.25 446.07 184.25 315.62"/>
            <polygon class="cls-7" points="312.42 371.67 285.74 315.62 243.08 315.62 293.17 414.15 293.17 482.23 331.67 482.23 331.67 414.15 381.76 315.62 339.11 315.62 312.42 371.67"/>
            <polygon class="cls-7" points="472.93 398.89 433.82 315.62 398.17 315.62 398.17 482.23 436.67 482.23 436.67 407.46 459.62 454.87 486.41 454.87 508.47 408.2 508.47 482.23 546.97 482.23 546.97 315.62 511.27 315.62 472.93 398.89"/>
            <path class="cls-7" d="M692.38,407.65c5.04-4.78,8.94-10.55,11.62-17.15h0c2.62-6.5,3.96-13.66,3.96-21.27,0-7.47-1.33-14.58-3.95-21.14-2.67-6.68-6.59-12.49-11.63-17.28-4.96-4.71-10.94-8.46-17.79-11.15-6.83-2.69-14.49-4.04-22.79-4.04h-65.06s0,166.61,0,166.61h38.49s0-59.39,0-59.39h26.57c8.32,0,15.98-1.36,22.79-4.04,6.85-2.69,12.84-6.44,17.79-11.14ZM625.24,351.78h25.29c6.13,0,10.77,1.5,14.21,4.58,3.18,2.86,4.73,7.07,4.73,12.87,0,5.77-1.53,9.93-4.69,12.73-3.43,3.03-8.09,4.51-14.25,4.51h-25.29s0-34.68,0-34.68Z"/>
            <path class="cls-7" d="M944.37,469.81c5.46-4.55,10.07-10.22,13.72-16.87h0c3.59-6.54,6.12-14.07,7.53-22.39l1.55-9.1h-38.49s-1.44,5.97-1.44,5.97c-1.5,6.2-4.16,11.05-8.17,14.83-3.62,3.42-8.53,5.08-15.01,5.08-3.5,0-6.59-.59-9.46-1.81-2.86-1.22-5.21-2.81-7.11-4.82-1.35-1.46-2.48-3.04-3.34-4.73-.85-1.64-1.52-3.85-2.02-6.53-.58-3.16-1-7.15-1.26-11.87-.27-4.88-.41-11.16-.41-18.65,0-7.49.14-13.77.41-18.66.26-4.71.68-8.7,1.26-11.85.5-2.7,1.18-4.9,2.02-6.55.86-1.68,1.99-3.28,3.28-4.66,1.96-2.06,4.3-3.66,7.17-4.88,2.87-1.22,5.97-1.82,9.46-1.82,6.45,0,11.32,1.65,14.87,5.05,3.95,3.78,6.6,8.64,8.1,14.86l1.44,5.97h38.77s-1.63-9.16-1.63-9.16c-3-16.93-10.13-30.13-21.17-39.23-11.01-9.06-24.59-13.66-40.38-13.66-8.91,0-17.27,1.6-24.83,4.73-7.55,3.13-14.4,7.73-20.34,13.67-4.29,4.28-7.65,8.92-10,13.8-2.27,4.69-3.94,9.83-4.98,15.28-1,5.21-1.58,11.02-1.73,17.28-.15,5.93-.21,12.53-.21,19.82,0,7.28.07,13.89.21,19.81.15,6.27.73,12.09,1.73,17.29,1.04,5.45,2.72,10.59,4.98,15.29,2.35,4.88,5.72,9.52,10,13.79,5.93,5.94,12.77,10.53,20.34,13.67,7.56,3.14,15.92,4.73,24.84,4.73,7.59,0,14.86-1.13,21.64-3.36,6.92-2.28,13.21-5.76,18.67-10.33Z"/>
            <path class="cls-7" d="M1099.35,410.93c-2.48-6.34-6.27-11.83-11.36-16.4-3.86-3.36-8.35-6.13-13.37-8.22-4.86-2.02-10.98-3.6-18.82-4.86l-17.15-2.54c-5.8-.89-10.16-2.61-12.85-5.01-1.12-1.04-1.91-2.16-2.4-3.4-.55-1.41-.83-3.04-.83-4.88,0-4.65,1.48-8.2,4.65-11.19,3.23-3.03,8.32-4.57,15.14-4.57,5.57,0,10.77.71,15.47,2.11,4.22,1.27,8.25,3.74,11.98,7.36l5.47,5.3,25.85-25.48-5.94-5.55c-7.24-6.76-15.13-11.73-23.43-14.77-8.18-2.99-17.87-4.51-28.76-4.51-8.75,0-16.73,1.21-23.73,3.6-7.22,2.46-13.46,6.08-18.56,10.76-5.1,4.69-9.1,10.33-11.86,16.78-2.74,6.41-4.13,13.47-4.13,20.99,0,14.48,4.54,26.1,13.49,34.54,7.95,7.45,19.02,12.2,32.86,14.11l17.71,2.53c4.99.79,7.47,1.49,8.64,1.93,1.32.49,2.57,1.3,3.92,2.55.83.74,3.34,2.98,3.34,9.89,0,4.91-1.55,8.24-5.01,10.81-4.04,3-10.23,4.52-18.38,4.52-6.92,0-13.16-.9-18.57-2.69-5.01-1.65-9.9-4.83-14.53-9.46l-5.47-5.47-26.31,25.96,5.44,5.55c8.01,8.18,16.94,14.03,26.54,17.38,9.27,3.25,20.2,4.89,32.48,4.89,8.64,0,16.74-1.11,24.07-3.29,7.57-2.26,14.24-5.64,19.8-10.07,5.7-4.53,10.21-10.14,13.4-16.69h0c3.2-6.57,4.82-14,4.82-22.08,0-7.45-1.22-14.33-3.62-20.45Z"/>
          </g>
          <g>
            <path class="cls-2" d="M812.62,112.84c1.43-5.05,2.65-10,3.51-14.73,4.32-23.96.43-40.95-10.96-47.84-11.42-6.89-28.25-2.44-47.46,12.5-3.16,2.46-6.33,5.24-9.5,8.15-20.72-21.62-41.41-31.62-55.47-24.34-11.82,6.13-16.81,22.83-14.06,47.02.5,4.39,1.31,8.98,2.28,13.67-29.82,7.06-49.38,20.1-50.11,36.16-.73,16.29,18.09,31.26,47.89,40.97-1.43,5.05-2.65,10-3.51,14.74-4.32,23.96-.43,40.95,10.96,47.84,3.51,2.12,7.52,3.17,11.97,3.17,10.01,0,22.19-5.31,35.49-15.67,3.17-2.46,6.34-5.25,9.52-8.17,16.18,16.88,32.33,26.72,45.33,26.72,3.64,0,7.04-.77,10.12-2.37,11.82-6.13,16.81-22.83,14.06-47.03-.5-4.37-1.3-8.94-2.26-13.61,4.66-1.09,9.14-2.31,13.33-3.7,23.11-7.67,36.16-19.22,36.77-32.52.73-16.29-18.09-31.26-47.88-40.97ZM763.31,69.97c11.61-9.03,21.99-13.76,29.78-13.76,2.81,0,5.28.62,7.35,1.87,7.81,4.72,10.25,18.72,6.7,38.41-.8,4.42-1.93,9.04-3.27,13.75-9.17-2.5-19.18-4.53-29.83-6-6.35-9.9-12.99-18.82-19.69-26.57,2.99-2.76,5.99-5.38,8.96-7.7ZM777.92,168.13c-3.85,6.37-7.89,12.47-12.05,18.28-7.14.23-14.46.2-21.9-.14-7.37-.33-14.46-.94-21.23-1.77-3.6-5.81-7.12-11.98-10.52-18.53-3.24-6.25-6.2-12.51-8.87-18.74,3.07-6.04,6.43-12.1,10.07-18.12,3.85-6.37,7.89-12.47,12.05-18.28,2.96-.1,5.96-.16,9.02-.16,4.2,0,8.49.1,12.87.29,7.37.33,14.45.94,21.22,1.77,3.6,5.81,7.13,11.97,10.53,18.53,3.24,6.25,6.2,12.52,8.87,18.74-3.07,6.04-6.43,12.1-10.07,18.13ZM792.44,161.08c2.81,7.47,5.11,14.78,6.95,21.87-6.97,1.26-14.32,2.21-22,2.81,2.84-4.19,5.64-8.47,8.33-12.91,2.36-3.91,4.58-7.84,6.72-11.77ZM729.16,194.37c4.71.44,9.5.79,14.4,1.01,4.49.2,8.94.3,13.34.3.67,0,1.33-.03,2-.03-5.01,6.37-10.15,12.23-15.34,17.53-4.8-5.58-9.64-11.86-14.41-18.82ZM711.12,182.82c-7.46-1.26-14.45-2.81-20.93-4.57,2.23-6.6,4.89-13.36,8-20.24,1.87,4.06,3.83,8.12,5.93,12.17,2.26,4.36,4.62,8.55,7,12.64ZM698.91,136.15c-2.8-7.47-5.11-14.77-6.95-21.86,6.81-1.25,14.17-2.21,22-2.83-2.85,4.2-5.65,8.48-8.34,12.92-2.36,3.91-4.58,7.83-6.71,11.76ZM762.13,102.86c-4.69-.44-9.47-.79-14.34-1.01-5.21-.23-10.32-.31-15.34-.28,5-6.36,10.13-12.21,15.31-17.5,4.79,5.56,9.61,11.86,14.37,18.79ZM787.23,127.05c-2.26-4.35-4.59-8.55-6.97-12.64,7.45,1.26,14.42,2.81,20.89,4.57-2.23,6.6-4.88,13.36-7.99,20.24-1.87-4.06-3.83-8.12-5.93-12.17ZM687.74,92.58c-2.25-19.87,1.1-33.69,9.2-37.89,1.75-.92,3.78-1.36,6.03-1.36,9.76,0,23.78,8.47,38.64,23.98-7.12,7.25-14.13,15.52-20.86,24.59-10.99.54-21.35,1.74-30.87,3.5-.91-4.4-1.67-8.71-2.14-12.82ZM639.96,143.84c.48-10.7,16.69-21.42,43.06-27.67,2.56,9.9,6.03,20.24,10.34,30.74-4.77,9.75-8.77,19.4-11.91,28.73-26.36-8.62-41.98-20.94-41.49-31.79ZM728.04,227.26c-15.79,12.28-29.29,16.62-37.13,11.9-7.81-4.72-10.25-18.72-6.7-38.41.8-4.42,1.93-9.04,3.27-13.75,9.18,2.5,19.2,4.53,29.87,6,6.35,9.89,12.97,18.81,19.67,26.55-3,2.76-5.99,5.39-8.98,7.71ZM803.61,204.65c2.25,19.88-1.1,33.69-9.2,37.89-9.37,4.89-26.4-3.46-44.7-22.59,7.13-7.26,14.16-15.55,20.91-24.64,10.83-.53,21.23-1.66,30.87-3.42.9,4.38,1.66,8.67,2.12,12.76ZM820.87,177.65c-3.93,1.3-8.16,2.42-12.53,3.45-2.56-9.92-6.03-20.26-10.35-30.78,4.77-9.75,8.77-19.4,11.91-28.73,26.36,8.62,41.98,20.94,41.49,31.79-.41,9.12-11.54,17.97-30.52,24.27Z"/>
            <g>
              <circle class="cls-1" cx="806.67" cy="54" r="39.57"/>
              <g>
                <path class="cls-4" d="M814.47,42.42c-3.93-7.2-10.31-14.93-20.7-20.15l-1.11-.55-.39,1.17c-3.99,11.92-2.08,22.4,1.16,30.31-1.9,1.87-7.55,8.98.43,21.06l1.72,2.6.24-3.11c0-.07.63-6.95,4.52-8.55,1.57,2.04,2.72,3.19,2.76,3.24l.53.51,1.76-.8,5.45,5.49,10.52-4.57-1.41-6.86.75-.28-.07-.81c0-.07-.2-2.1-.95-5.21,3.93-1.83,10.17,2.04,10.23,2.08l2.27,1.44-.65-2.61c-3.81-15.22-15.26-14.61-17.06-14.41ZM794.2,70.64c-4.47-8.34-1.55-13.36.14-15.31,1.51,3.24,3.18,5.94,4.67,8.05-2.84,1.45-4.18,4.79-4.81,7.27ZM793.92,24.76c20.04,10.75,23.88,31.42,24.48,35.73l-7.29,2.7-7.01,3.18c-2.86-3.12-16.79-19.79-10.18-41.61ZM818.91,67.8l-7.59,3.29-3.86-3.88,4.52-2.05,5.92-2.19,1,4.84ZM819.11,53.75c-.76-2.68-1.91-5.87-3.58-9.28,2.59-.11,9.75.56,13.2,10.46-2.46-1.14-6.41-2.45-9.62-1.19Z"/>
                <path class="cls-4" d="M814.54,76.02c-.26-.53-.91-.74-1.44-.48-.53.26-.75.91-.48,1.44l3.64,7.33c.19.38.57.6.96.6.16,0,.32-.04.48-.11.53-.26.75-.91.48-1.44l-3.64-7.33Z"/>
                <path class="cls-4" d="M822.66,73.13c-.26-.53-.9-.74-1.44-.48-.53.26-.75.91-.48,1.44l3.64,7.33c.18.38.57.6.96.6.16,0,.32-.04.48-.11.53-.26.75-.91.48-1.44l-3.64-7.33Z"/>
                <path class="cls-4" d="M818.37,74.71c-.28-.52-.93-.72-1.45-.44-.52.28-.72.93-.44,1.45l5,9.31c.2.36.57.57.95.57.17,0,.35-.04.51-.13.52-.28.72-.93.44-1.45l-5-9.31Z"/>
                <path class="cls-4" d="M802.15,38.84c-2.88.23-5.04,2.76-4.81,5.64.11,1.4.76,2.66,1.82,3.57.96.82,2.15,1.25,3.39,1.25.14,0,.28,0,.43-.02,1.4-.11,2.67-.76,3.57-1.82.91-1.07,1.35-2.42,1.24-3.82-.11-1.4-.76-2.66-1.82-3.57-1.07-.91-2.42-1.35-3.82-1.24ZM804.92,46.08c-.54.63-1.29,1.01-2.11,1.08-.85.05-1.62-.19-2.25-.73-.63-.54-1.01-1.29-1.08-2.11-.13-1.7,1.14-3.2,2.84-3.33.09,0,.17,0,.25,0,.74,0,1.44.26,2.01.74.63.54,1.01,1.29,1.08,2.11.06.83-.2,1.63-.73,2.26Z"/>
              </g>
            </g>
            <g>
              <circle class="cls-3" cx="687.88" cy="244.92" r="39.57"/>
              <path class="cls-4" d="M707.24,234.29c0-6.48-1.92-11.46-5.72-14.8-3.34-2.98-8.06-4.56-13.65-4.56-5.59,0-10.31,1.58-13.64,4.55-3.8,3.35-5.72,8.33-5.72,14.81,0,8.18,4.13,12.71,7.45,16.34,1.63,1.78,2.92,3.26,3.4,4.75-1.98.29-3.49,1.88-3.49,3.96,0,1.19.54,2.24,1.36,2.99-.82.74-1.36,1.79-1.36,3.01,0,2.18,1.74,3.94,3.89,4.04.61,3.17,3.36,5.54,6.68,5.54h2.86c3.32,0,6.08-2.35,6.71-5.5h0c2.27,0,4.11-1.83,4.11-4.07,0-1.2-.55-2.26-1.39-3,.84-.75,1.39-1.8,1.39-3,0-2.09-1.62-3.75-3.67-3.98.47-1.49,1.76-2.96,3.37-4.74,3.3-3.63,7.4-8.16,7.4-16.33ZM689.31,272.77h-2.86c-2.12,0-3.92-1.41-4.49-3.36h11.88c-.58,1.95-2.39,3.36-4.53,3.36ZM697.99,265.34c0,1.06-.88,1.93-1.97,1.93h-16.08c-1.06,0-1.93-.87-1.93-1.93,0-1.08.85-1.93,1.93-1.93h16.08c1.1,0,1.97.85,1.97,1.93ZM697.99,259.34c0,1.06-.88,1.93-1.97,1.93h-16.08c-1.06,0-1.93-.87-1.93-1.93,0-1.08.85-1.93,1.93-1.93h16.08c1.1,0,1.97.85,1.97,1.93ZM683.69,243.77h-1.68c-.93,0-1.68-.76-1.68-1.68v-.82c0-.93.76-1.68,1.68-1.68.93,0,1.68.76,1.68,1.68v2.5ZM690.17,255.27h-4.34s0-9.36,0-9.36h2.17s2.17,0,2.17,0v9.36ZM694.22,255.27h-1.91s0-9.36,0-9.36h1.68c2.11,0,3.83-1.71,3.83-3.82v-.82c0-2.11-1.72-3.82-3.83-3.82-2.11,0-3.83,1.71-3.83,3.82v2.5s-2.17,0-2.17,0h-2.17s0-2.5,0-2.5c0-2.11-1.72-3.82-3.83-3.82-2.11,0-3.82,1.71-3.82,3.82v.82c0,2.11,1.71,3.82,3.82,3.82h1.68s0,9.36,0,9.36h-2.09c-.48-2.16-2.15-4-4.05-6.08-3.07-3.36-6.89-7.55-6.89-14.9,0-5.83,1.68-10.28,5-13.21,2.94-2.63,7.17-4.01,12.22-4.01,5.05,0,9.28,1.39,12.22,4.02,3.32,2.93,5,7.37,5,13.2,0,7.34-3.8,11.52-6.85,14.88-1.89,2.08-3.56,3.92-4.03,6.09ZM692.32,243.77v-2.5c0-.93.76-1.68,1.68-1.68s1.68.76,1.68,1.68v.82c0,.93-.76,1.68-1.68,1.68h-1.68Z"/>
            </g>
            <g>
              <circle class="cls-8" cx="862.05" cy="150.32" r="34.71"/>
              <path class="cls-4" d="M862.05,138.65c-6.4,0-11.6,5.2-11.6,11.59,0,6.39,5.2,11.6,11.6,11.6s11.59-5.2,11.59-11.6c0-6.39-5.2-11.59-11.59-11.59ZM862.05,159.7c-5.21,0-9.46-4.24-9.46-9.45,0-5.21,4.24-9.45,9.46-9.45,5.21,0,9.45,4.24,9.45,9.45,0,5.21-4.24,9.45-9.45,9.45Z"/>
              <path class="cls-4" d="M887.5,155.84v-11.07h-6.06c-.42-1.48-1.01-2.91-1.77-4.26l4.28-4.28-7.84-7.8-4.27,4.27c-1.35-.78-2.78-1.38-4.27-1.8v-6.03h-11.07v6.05c-1.48.4-2.91,1-4.27,1.78l-4.27-4.27-7.85,7.8,4.28,4.28c-.76,1.35-1.35,2.78-1.77,4.26h-6.03v11.07h6.03c.42,1.48,1.01,2.9,1.77,4.26l-4.28,4.28,7.84,7.84,4.28-4.28c1.36.76,2.78,1.35,4.26,1.77v6.07h11.07v-6.06c1.47-.41,2.89-1.01,4.26-1.77l4.28,4.28,7.84-7.84-4.28-4.28c.76-1.35,1.35-2.78,1.77-4.26h6.06ZM879.56,154.52c-.43,1.82-1.15,3.57-2.15,5.18l-.45.72,3.95,3.95-4.81,4.81-3.95-3.95-.72.44c-1.67,1.03-3.36,1.73-5.18,2.15l-.83.19v5.6s-6.79,0-6.79,0v-5.6s-.82-.2-.82-.2c-1.82-.43-3.56-1.15-5.19-2.16l-.72-.44-3.95,3.95-4.81-4.81,3.95-3.95-.45-.72c-1-1.62-1.72-3.36-2.15-5.18l-.2-.83h-5.57s0-6.79,0-6.79h5.57s.2-.83.2-.83c.43-1.82,1.15-3.57,2.15-5.18l.45-.72-3.95-3.95,4.8-4.77,3.96,3.96.73-.46c1.62-1.03,3.35-1.75,5.16-2.14l.84-.18v-5.62s6.79,0,6.79,0v5.57s.83.19.83.19c1.85.43,3.54,1.14,5.17,2.18l.73.46,3.96-3.96,4.8,4.77-3.95,3.95.45.72c1,1.62,1.72,3.36,2.15,5.18l.2.83h5.6s0,6.79,0,6.79h-5.6s-.2.83-.2.83Z"/>
            </g>
            <g>
              <circle class="cls-5" cx="635" cy="143.37" r="34.71"/>
              <path class="cls-4" d="M653.65,123.07c-3.96-3.94-10.41-3.93-14.36.02l-23.08,23.05-2.97,15.88-.18,1.66,17.52-3.02,23.31-22.83c3.99-3.91,4.07-10.35.16-14.37l-.39-.4ZM622.34,146.9c-.35-.22-.74-.39-1.17-.48l-1.81-.39,15.2-15.18,2.22,2.15-14.44,13.9ZM620.72,148.51c.67.14,1.16.75,1.16,1.43v.42c0,2.36,1.91,4.27,4.27,4.27h.92c.61,0,1.11.5,1.11,1.11v3.16s-6.63,1.18-6.63,1.18l-4.86-4.86,1.36-7.29,2.66.57ZM628.09,152.7c-.32-.11-.66-.21-1.02-.21h-.92c-1.17,0-2.13-.95-2.13-2.13v-.42c0-.49-.13-.96-.31-1.39l14.6-14.06,4.33,4.2-14.55,14.01ZM636.07,129.33l2.23-2.23,11.49,11.74-1.96,1.92-11.77-11.43ZM616.22,157.78l2.76,2.76-3.39.6.63-3.36ZM630.33,157.91v-2.16c0-.64-.23-1.2-.55-1.7l14.4-13.86,2.13,2.07-15.98,15.65ZM652.39,136.31l-1.05,1.03-11.51-11.75.98-.98c3.13-3.12,8.21-3.12,11.33-.02l.38.38c3.08,3.16,3.01,8.25-.14,11.33Z"/>
            </g>
          </g>
          <path class="cls-7" d="M679.24,288.49s41.41,35.13,128.58-4.95c87.17-40.08,85.72-95.29,85.72-95.29,0,0,33.42,50.85-46.49,103.15,0,0-22.52,146.74-180.15,210.66,0,0,82.09-52.3,106.78-180.15,0,0-66.83,18.89-94.43-33.42Z"/>
        </g>
        <g>
          <path class="cls-7" d="M62.39.83v73.05s-14.86,0-14.86,0v-36.42s-12.02,24.94-12.02,24.94h-8.65s-12.02-24.94-12.02-24.94v36.42s-14.86,0-14.86,0V.83s8.51,0,8.51,0l22.69,40.49L53.89.83h8.51Z"/>
          <path class="cls-7" d="M101.69,62.3h-17.02s-2.7,11.58-2.7,11.58h-15.13S85.76.83,85.76.83h14.86s18.9,73.05,18.9,73.05h-15.12s-2.7-11.58-2.7-11.58ZM99.12,50.82l-5.94-26.19-5.94,26.19h11.88Z"/>
          <path class="cls-7" d="M163.28,73.88h-39.17s0-73.05,0-73.05h14.86s0,61.57,0,61.57h24.31s0,11.48,0,11.48Z"/>
          <path class="cls-7" d="M200.28,62.3h-17.02s-2.7,11.58-2.7,11.58h-15.13S184.34.83,184.34.83h14.86s18.9,73.05,18.9,73.05h-15.12s-2.7-11.58-2.7-11.58ZM197.71,50.82l-5.94-26.19-5.94,26.19h11.88Z"/>
          <path class="cls-7" d="M243.76,48.21v25.67s-14.98,0-14.98,0v-25.67S210.55.83,210.55.83h15.66s10,26.2,10,26.2L246.47.83h15.66s-18.37,47.38-18.37,47.38Z"/>
          <path class="cls-7" d="M284.82,74.72c-6.48,0-11.71-1.43-15.66-4.28-4.51-3.34-6.76-7.9-6.76-13.67v-9.5s14.86,0,14.86,0v9.5c0,2.5.68,4.25,2.03,5.22,1.17.84,3.01,1.25,5.54,1.25,2.61,0,4.46-.41,5.54-1.25,1.35-.9,2.03-2.64,2.03-5.22v-4.59c0-3.2-1.66-5.98-4.99-8.35-.72-.49-2.61-1.39-5.67-2.72-4.23-1.74-7.34-3.27-9.32-4.59-3.24-2.23-5.72-4.77-7.43-7.62-1.71-2.85-2.57-5.91-2.57-9.18v-1.77c0-5.77,2.25-10.33,6.76-13.67C273.12,1.43,278.34,0,284.82,0c6.48,0,11.7,1.43,15.66,4.28,4.51,3.34,6.76,7.9,6.76,13.67v6.36s-14.86,0-14.86,0v-6.36c0-2.57-.68-4.31-2.03-5.22-1.08-.83-2.93-1.25-5.54-1.25s-4.37.42-5.54,1.25c-1.35.98-2.03,2.72-2.03,5.22v1.77c0,3.2,1.66,5.95,4.99,8.24.9.56,2.66,1.39,5.27,2.5,4.68,1.95,7.92,3.55,9.72,4.8,6.66,4.59,10,10.23,10,16.91v4.59c0,5.77-2.25,10.33-6.76,13.67-3.96,2.85-9.18,4.28-15.66,4.28Z"/>
          <path class="cls-7" d="M328.04,73.88h-14.86s0-73.05,0-73.05h14.86s0,73.05,0,73.05Z"/>
          <path class="cls-7" d="M367.34,62.3h-17.02s-2.7,11.58-2.7,11.58h-15.13S351.41.83,351.41.83h14.86s18.9,73.05,18.9,73.05h-15.12s-2.7-11.58-2.7-11.58ZM364.77,50.82l-5.94-26.19-5.94,26.19h11.88Z"/>
        </g>
      </g>
      <g>
        <path class="cls-6" d="M409.12,591.08l-.58.03c-1.22-.14-2.04-.57-2.46-1.3-.42-.73-.73-1.65-.92-2.75-.06-.34-.15-.67-.26-1-.62-2.88-1-5.96-1.15-9.24-.14-2.99-.12-6.06.05-9.19.17-3.13.41-6.15.71-9.07.49-5.1,1.33-10.13,2.51-15.07.04-.24.1-.49.18-.74.16-.68.37-1.42.62-2.21.26-.64.78-1.13,1.57-1.45.78-.33,1.56-.51,2.33-.54.53-.02.99,0,1.38.08.88.25,1.39.71,1.51,1.38v.29c.03.39,0,.82-.07,1.31-.04.1-.06.2-.06.29-.32,2.53-.75,5.33-1.29,8.41-.66,3.51-1.15,6.68-1.45,9.5-.11.83-.22,2.85-.34,6.08-.12,3.23-.24,6.52-.35,9.89-.11,3.37-.15,5.46-.11,6.28.07,1.59.19,3.19.36,4.78,0,.19.04.41.1.65l.28-.16c1.04-.48,2.09-.92,3.14-1.3,2.15-.73,4.4-1.15,6.77-1.25h.07c.39-.02.68.1.89.36.2.26.31.53.33.82.02.34-.08.65-.28.92-.2.28-.5.42-.89.44-2.22.15-4.4.61-6.54,1.39-1.05.39-2.07.84-3.06,1.37l-1.36.5c-.47.31-1.02.48-1.65.51Z"/>
        <path class="cls-6" d="M450.93,589.31l-.36.02c-1.36-.08-2.3-.46-2.81-1.14-.52-.68-.87-1.62-1.07-2.82-.31-1.54-.53-3.09-.65-4.65-.12-1.57-.21-3.12-.29-4.67-.16-3.43-.17-6.84-.03-10.24-.96,2.37-1.94,4.76-2.94,7.18-1.73,4.44-3.02,7.57-3.85,9.4-.42,1.33-1.09,2.66-2,4.01-.91,1.35-2.1,2.15-3.59,2.41-1.64.08-2.97-.48-4-1.67-1.02-1.19-1.79-2.63-2.3-4.32-.51-1.69-.81-3.36-.88-5-.04-.87.02-2.37.19-4.51.17-2.14.38-4.24.62-6.31.24-2.07.49-3.5.75-4.28.17-.54.58-.98,1.25-1.33.66-.34,1.33-.53,2.01-.56,1.02.05,1.73.26,2.13.63.4.37.62.84.65,1.42.06,1.4-.05,2.62-.34,3.65-.07.54-.14,1.07-.22,1.61-.03.54-.06,1.02-.12,1.46-.05.44-.09.9-.12,1.38-.04.24-.07.54-.1.88-.27,2.68-.46,5.37-.58,8.09l.04.87c.04.77.17,1.58.4,2.41.23.84.62,1.39,1.16,1.65.68-.03,1.18-.3,1.52-.8.34-.5.62-1.04.83-1.64.04-.1.09-.2.13-.29,1.02-2.13,1.83-3.91,2.44-5.34.61-1.43,1.4-3.36,2.35-5.77.43-1.09,1.08-2.83,1.94-5.24.86-2.31,1.71-4.53,2.53-6.65.82-2.12,1.44-3.43,1.85-3.93.4-.75,1.01-1.26,1.82-1.54.33-.11.72-.18,1.15-.2.68-.03,1.31.06,1.9.28.54.22.89.52,1.06.89.16.38.25.81.28,1.29l.03.65c-.05,1.12-.09,2.18-.14,3.2-.23,4.61-.41,9.53-.56,14.76-.05,1.07-.08,2.62-.08,4.65,0,2.04.02,3.68.08,4.94l.05,1.09.22,1.59c.03.63-.12,1.19-.43,1.69-.23.3-.51.51-.84.62-.34.11-.69.18-1.08.19Z"/>
        <path class="cls-6" d="M481.93,589.21l-.36.02c-.34.02-.73-.02-1.17-.09-.73-.11-1.42-.37-2.07-.78-.65-.41-1.08-.89-1.3-1.47-.54-2.2-.85-4.39-.95-6.56l-.06-1.31-.18-7.18-2.87,8.77c-.42,1.42-1.1,2.77-2.03,4.05-.93,1.28-2.2,1.95-3.79,2.02-.87.04-1.85-.18-2.93-.66-1.69-.94-2.99-2.31-3.89-4.11-1.07-2.23-1.66-4.59-1.78-7.11-.12-2.7.27-5.34,1.17-7.9.9-2.56,2.26-4.69,4.1-6.4,1.83-1.7,4.1-2.62,6.81-2.74,1.74-.08,3.06.08,3.98.47.91.4,1.62.8,2.13,1.21,0,.05.03.07.07.07.13-1.31.28-2.35.44-3.1.16-.76.32-1.41.49-1.95.44-1.04,1.18-1.77,2.22-2.21.33-.11.72-.18,1.15-.2.68-.03,1.31.06,1.9.28.69.26,1.2.55,1.53.87.33.33.51.83.54,1.5.06,1.35,0,2.75-.17,4.18-.18,1.44-.4,2.86-.68,4.28-.23,1.27-.42,2.51-.56,3.73l-.4,3.94c-.31,3.84-.38,7.67-.2,11.48l.22,3.26c.01.29.01.62,0,.98,0,.36-.03.62-.07.77,0,.05-.02.12-.06.22-.03.39-.14.73-.32,1.03-.18.3-.48.51-.92.62ZM467.81,583.68c.77-.04,1.43-.53,1.97-1.47,1.65-4.04,3.33-8.74,5.02-14.1.38-1.13.74-2.24,1.08-3.32.17-.4.25-.86.23-1.39-.02-.43-.2-.92-.54-1.46-.34-.54-.97-.79-1.89-.75-.77.04-1.58.3-2.43.8-.85.5-1.48,1-1.89,1.5-2.69,2.69-4.19,5.88-4.5,9.57-.32,1.57-.43,3.24-.35,5.03.07,1.45.39,2.76.98,3.91.58,1.16,1.36,1.72,2.33,1.67Z"/>
        <path class="cls-6" d="M496.51,587.16c-1.21.06-2.31-.3-3.32-1.08-.82-1.03-1.31-2.21-1.47-3.56,0-.05,0-.1,0-.14-.12-.43-.18-.86-.2-1.3-.16-1.25-.26-2.55-.32-3.91-.13-2.9-.12-5.8.04-8.71,0-.19-.02-.41-.03-.65,0-2.18.09-4.41.27-6.69.03-.34.07-.68.1-1.02,0-.92.11-1.79.31-2.63.2-.83.68-1.55,1.43-2.17.84-.77,1.81-1.17,2.92-1.22.39-.02.8.04,1.24.16.54.17.92.49,1.13.96.21.48.34.98.36,1.51l-.09,1.31c-.28,2.34-.47,4.22-.58,5.65s-.25,3.34-.43,5.72c-.03.39-.06.94-.07,1.64-.02.7,0,1.39.02,2.07.03.63.03,1.14,0,1.53.37-1.32.69-2.38.94-3.17.25-.79.54-1.84.87-3.16.17-.54.31-1.1.43-1.69.61-2.59,1.47-5.22,2.58-7.89,1.11-2.66,2.75-4.58,4.93-5.74.52-.22,1.07-.34,1.65-.37.87-.04,1.73.16,2.57.61,1.05.63,1.8,1.44,2.25,2.44.46.99.76,2.07.91,3.23l.12.94c.03.58-.07,1.16-.28,1.76-.22.4-.55.68-.98.84-.43.17-.86.26-1.29.28-.39-.03-.8-.1-1.24-.2-.44-.1-.81-.31-1.12-.64-.41-.56-.66-1.23-.75-2-.06-.29-.12-.58-.18-.86,0-.05,0-.1,0-.14-.06-.34-.17-.68-.3-1.04-.14-.36-.36-.67-.66-.95-.2-.18-.4-.27-.59-.26-.19,0-.38.09-.57.24-.19.15-.35.33-.48.53-.96,1.3-1.67,2.76-2.12,4.38-.04.1-.09.22-.13.37-.21.64-.58,1.7-1.09,3.17-.51,1.47-.96,2.8-1.34,3.98-.25.93-.46,1.69-.62,2.28-.12.49-.26.99-.4,1.51s-.34,1.21-.59,2.1c-.12.59-.26,1.17-.43,1.76-.33,1.32-.6,2.69-.83,4.1l.18,3.99c.01.24,0,.47-.04.69-.04.22-.1.38-.2.48-.65.61-1.48.94-2.5.98Z"/>
        <path class="cls-6" d="M538.23,585.18l-.51.02c-1.32-.18-2.2-.65-2.64-1.4-.45-.75-.77-1.66-.96-2.72-.06-.34-.15-.65-.26-.93-.62-2.92-1-6-1.15-9.24-.14-3.04-.12-6.13.05-9.26.17-3.13.41-6.13.71-9,.54-5.15,1.42-10.18,2.65-15.08.24-1.03.54-2.03.88-3.02.26-.59.79-1.06,1.57-1.41.78-.35,1.58-.55,2.41-.58.58-.03,1.11.02,1.6.15.83.21,1.31.64,1.44,1.31,2.86.21,5.61.86,8.22,1.95,1.73.79,3.04,1.92,3.93,3.38.89,1.46,1.37,3.03,1.45,4.73.1,2.17-.48,4.28-1.74,6.32-.73,1.1-1.98,2.28-3.76,3.55-1.78,1.27-3.87,2.24-6.26,2.93,2.72.31,5.27,1.02,7.65,2.12,1.78.89,3.15,2.12,4.09,3.7.94,1.58,1.46,3.29,1.54,5.12.11,2.32-.49,4.6-1.79,6.84-.58.99-1.59,2.07-3.01,3.22-1.42,1.15-3.11,2.17-5.05,3.06-1.94.89-4,1.38-6.18,1.48-.82.04-1.65,0-2.47-.11.04.77-.1,1.46-.42,2.05-.23.3-.52.51-.88.62-.36.11-.73.18-1.12.19ZM540.48,580.29c3.62-.21,6.71-1.49,9.26-3.84,2.78-2.74,4.2-6.02,4.27-9.85v-.15c-.11-2.22-.88-3.82-2.33-4.79-1.45-.98-3.17-1.57-5.17-1.8s-3.84-.3-5.53-.22c-.05,0-.1,0-.14,0-.05,0-.1-.02-.15-.07-.14,3.25-.28,6.61-.41,10.08-.13,3.47-.18,5.64-.14,6.5.06,1.35.17,2.73.33,4.12ZM540.94,555.44c3.03-.38,5.59-1.49,7.69-3.33,2.64-2.59,4-5.65,4.08-9.19v-.22c-.08-1.55-.56-2.75-1.44-3.6-.89-.85-1.98-1.47-3.28-1.85-1.3-.38-2.68-.61-4.13-.68-.33,2.34-.75,4.85-1.25,7.54-.71,3.57-1.24,6.84-1.59,9.8l-.08,1.53Z"/>
        <path class="cls-6" d="M570.91,551.82c.8.5,1.21,1.18,1.25,2.05,0,.05,0,.1,0,.14-.08.49-.1,1-.08,1.53,0,.15-.01.27-.06.37-.19,2.23-.3,4.52-.34,6.84,0,.19,0,.39-.05.58-.17,4.85-.14,9.64.08,14.37l.1,2.25c.01.29.02.66.01,1.12,0,.46-.05.81-.13,1.06-.03.44-.12.82-.27,1.14-.16.32-.47.54-.95.66-.19.06-.38.09-.58.1-.29.01-.61-.02-.95-.1-.78-.11-1.48-.37-2.1-.77-.62-.41-1.05-.9-1.26-1.47-.54-2.2-.88-4.39-1.03-6.56l-.06-1.23c-.07-1.5-.09-3.12-.08-4.86.03-.39.04-.8.02-1.24.02-.53.05-1.09.07-1.67.02-.58.04-1.14.07-1.67.07-.68.1-1.55.1-2.62-.02-1.4.03-2.84.13-4.33.1-1.48.33-2.64.68-3.48.79-1.68,1.94-2.56,3.44-2.62.68-.03,1.34.11,1.98.42ZM569.41,546.01c-.87.04-1.48-.09-1.83-.39-.35-.3-.54-.71-.57-1.24-.03-.63.3-1.18.98-1.64.68-.47,1.36-.72,2.04-.75,1.18.34,1.79.93,1.83,1.8.02.53-.18,1.03-.62,1.48-.44.46-1.05.7-1.82.74Z"/>
        <path class="cls-6" d="M600.76,583.78l-.36.02c-.34.02-.73-.02-1.17-.09-.73-.11-1.42-.37-2.07-.78-.65-.41-1.08-.89-1.3-1.47-.54-2.2-.85-4.39-.95-6.56l-.06-1.31-.18-7.18-2.87,8.77c-.42,1.42-1.1,2.77-2.03,4.05-.93,1.28-2.2,1.95-3.79,2.02-.87.04-1.85-.18-2.94-.66-1.69-.94-2.99-2.31-3.89-4.11-1.07-2.23-1.66-4.59-1.78-7.11-.12-2.7.27-5.34,1.17-7.9.9-2.56,2.26-4.69,4.1-6.4,1.83-1.7,4.1-2.62,6.81-2.74,1.74-.08,3.06.08,3.98.47.91.4,1.62.8,2.12,1.21,0,.05.03.07.08.07.13-1.31.28-2.35.44-3.1.16-.76.32-1.41.49-1.95.44-1.04,1.18-1.77,2.22-2.21.33-.11.72-.18,1.15-.2.68-.03,1.31.06,1.9.28.69.26,1.2.55,1.53.87.33.33.51.83.54,1.5.06,1.35,0,2.75-.17,4.18-.18,1.44-.4,2.86-.68,4.28-.23,1.27-.42,2.51-.56,3.73l-.4,3.94c-.31,3.84-.38,7.67-.2,11.48l.22,3.26c.01.29.01.62,0,.98,0,.36-.03.62-.07.77,0,.05-.02.12-.06.22-.03.39-.14.73-.32,1.03-.18.3-.48.51-.92.62ZM586.64,578.26c.77-.04,1.43-.53,1.97-1.47,1.65-4.04,3.33-8.74,5.02-14.1.38-1.13.74-2.24,1.08-3.32.17-.4.25-.86.23-1.39-.02-.43-.2-.92-.54-1.46-.34-.54-.97-.79-1.89-.75-.77.04-1.58.3-2.43.8-.85.5-1.48,1-1.89,1.5-2.68,2.69-4.18,5.88-4.5,9.57-.32,1.57-.43,3.24-.35,5.03.07,1.45.39,2.76.98,3.91.58,1.16,1.36,1.72,2.33,1.67Z"/>
        <path class="cls-6" d="M616.88,582.25c-1.74.08-3.44-.42-5.11-1.51-1.67-1.08-2.55-2.52-2.63-4.31l.04-.8c.03-.29.16-.57.36-.85.21-.27.45-.42.74-.43.39-.02.66.13.82.44.16.31.27.63.33.96.11.33.22.59.33.78.47.7,1.15,1.23,2.03,1.58.89.35,1.72.5,2.49.47.77-.04,1.42-.26,1.93-.67.51-.41.91-.85,1.17-1.32.27-.47.53-1.08.79-1.81-.06-1.4-.35-2.5-.84-3.3-.5-.8-1.08-1.55-1.74-2.24-.46-.51-.9-1.07-1.31-1.68-.26-.33-.64-.72-1.14-1.18-1.06-.92-2.16-2.22-3.3-3.92-1.14-1.69-1.77-3.86-1.9-6.52.07-2.67.94-4.86,2.6-6.58,1.66-1.72,3.68-2.64,6.05-2.75.82-.04,1.67.07,2.56.32,1.42.47,2.51,1.36,3.24,2.68.74,1.32,1.14,2.73,1.21,4.23.04.87-.04,1.57-.23,2.11-.19.54-.65.93-1.36,1.15-.34.01-.6-.13-.78-.44-.18-.31-.31-.68-.38-1.11v-1.6c-.03-.73-.35-1.45-.93-2.17-.59-.72-1.3-1.07-2.12-1.03-1.2.15-2.08.74-2.64,1.75s-.81,2.11-.76,3.27c.04.97.26,1.78.66,2.44.39.66.87,1.29,1.43,1.9.26.33.51.63.77.91,1.38,1.54,2.49,2.89,3.34,4.06.85,1.17,1.59,2.43,2.21,3.79.62,1.35.91,2.63.87,3.84.07,2.71-.55,4.86-1.88,6.48-.97,1.11-1.93,1.84-2.88,2.2-.95.36-1.91.61-2.87.75-.05,0-.1,0-.14,0l-1.01.12Z"/>
        <path class="cls-6" d="M652.49,581.42l-.36.02c-.34.02-.73-.02-1.17-.09-.73-.11-1.42-.37-2.07-.78-.65-.41-1.08-.89-1.3-1.47-.54-2.2-.85-4.39-.95-6.56l-.06-1.31-.18-7.18-2.87,8.77c-.42,1.42-1.1,2.77-2.03,4.05-.93,1.28-2.2,1.95-3.79,2.02-.87.04-1.85-.18-2.93-.66-1.69-.94-2.99-2.31-3.89-4.11-1.07-2.23-1.66-4.59-1.78-7.11-.12-2.7.26-5.34,1.17-7.9.9-2.56,2.26-4.69,4.1-6.4,1.83-1.7,4.1-2.62,6.81-2.74,1.74-.08,3.06.08,3.98.47.91.4,1.62.8,2.12,1.21,0,.05.03.07.08.07.13-1.31.28-2.35.44-3.11.16-.76.32-1.41.49-1.95.44-1.04,1.18-1.77,2.22-2.21.33-.11.72-.18,1.15-.2.68-.03,1.31.06,1.9.28.69.26,1.2.55,1.53.87.33.33.51.83.54,1.5.06,1.35,0,2.75-.17,4.18s-.4,2.86-.68,4.28c-.23,1.27-.42,2.51-.56,3.73l-.4,3.94c-.31,3.84-.38,7.67-.2,11.48l.22,3.26c.01.29.01.62,0,.98,0,.36-.03.62-.07.77,0,.05-.02.12-.06.22-.03.39-.14.73-.32,1.03-.18.3-.49.51-.92.62ZM638.37,575.89c.77-.04,1.43-.53,1.97-1.47,1.66-4.04,3.33-8.74,5.02-14.1.38-1.13.74-2.24,1.08-3.32.17-.4.25-.86.23-1.39-.02-.43-.2-.92-.54-1.46-.34-.54-.97-.79-1.89-.75-.77.04-1.58.3-2.43.8-.85.5-1.48,1-1.89,1.5-2.68,2.69-4.18,5.88-4.5,9.57-.32,1.56-.43,3.24-.35,5.03.07,1.45.39,2.76.98,3.91.58,1.16,1.36,1.72,2.33,1.67Z"/>
        <path class="cls-6" d="M662.65,585.52l-.34.02c-.83.04-1.25-.21-1.27-.73-.03-.68.38-1.45,1.25-2.32,1.22-1.34,1.8-2.61,1.75-3.81-.18-.67-.59-1.27-1.21-1.81-.63-.53-.95-1.07-.98-1.59-.06-1.28.61-2.32,2-3.14.88-.49,1.81-.76,2.79-.8l.68-.03c2.05.43,3.11,1.33,3.17,2.68l-.06,1.25c.04.9-.6,2.62-1.91,5.17-1.54,2.63-3.49,4.34-5.86,5.13Z"/>
        <path class="cls-6" d="M704.34,576.51c-1.64.08-3.21-.36-4.71-1.31-1.7-1.23-3-2.82-3.88-4.76-.89-1.94-1.57-3.95-2.05-6.01-.77-3.06-1.22-6.16-1.37-9.3-.06-1.26-.07-2.49-.02-3.7.27-4.71,1.34-9.23,3.23-13.58,1.69-4.24,4.35-7.65,7.96-10.24,1.55-.94,3.2-1.45,4.94-1.53,1.21-.06,2.42.11,3.65.49,1.57.56,2.67,1.54,3.29,2.94.62,1.4.97,2.87,1.04,4.42v1.45c0,.34-.05.66-.18.95-.13.3-.39.53-.77.69-.14.06-.29.09-.43.09-.44.02-.76-.25-.98-.83l-.1-.65c-.02-.34,0-.65.03-.94.03-.34.04-.68.03-1.02v-.29c-.04-.53-.18-1.03-.45-1.51,0-.05-.03-.1-.08-.14-.44-1.24-1.37-1.97-2.79-2.19-.29-.04-.56-.05-.8-.04-.72.03-1.44.19-2.16.46-1.19.49-2.22,1.29-3.09,2.39-1.63,2.45-2.77,5.14-3.41,8.07-.04.2-.1.42-.19.66-.86,3.33-1.41,6.72-1.64,10.17-.22,2.62-.27,5.24-.15,7.85.08,1.79.3,3.56.64,5.31s.9,3.46,1.65,5.12c.48,1.04,1.06,1.95,1.72,2.72.66.77,1.5,1.13,2.52,1.08.58-.03,1.2-.23,1.86-.59,1.56-.9,2.68-2.22,3.38-3.97.69-1.75,1.22-3.48,1.58-5.19.04-.1.06-.22.06-.36.49-2.05.85-4.13,1.1-6.22.13-1.36.21-2.72.25-4.08.06-.73.1-1.43.12-2.11-.83-.06-1.77-.06-2.83-.02l-.8.04c-1.35.06-2.68.05-3.99-.04-.29-.03-.54-.16-.74-.37-.2-.21-.31-.46-.32-.75-.02-.34.16-.66.54-.97.14-.1.29-.17.46-.2.17-.03.32-.05.47-.06,1.88-.09,3.75-.12,5.59-.11.1,0,.17,0,.22-.01.14,0,.27-.01.36-.02.87-.04,1.73.03,2.59.21s1.31.8,1.36,1.86v.07c-.02,1.7-.13,3.37-.35,5.03-.04.29-.07.58-.11.88-.2,1.99-.47,3.94-.82,5.85-.45,2.92-1.36,5.8-2.73,8.62-1.37,2.82-3.66,4.64-6.87,5.47-.62.13-1.23.2-1.81.23Z"/>
        <path class="cls-6" d="M730.24,576.2c-1.46-.08-2.43-.46-2.92-1.14-.49-.68-.89-1.64-1.19-2.89-.06-.24-.12-.48-.18-.72-.84-3.45-1.34-7.18-1.53-11.19-.24-5.36-.12-10.64.37-15.84.33-5.58,1.23-11.34,2.7-17.26.26-.64.76-1.13,1.49-1.48.73-.35,1.49-.54,2.26-.57,1.79-.08,2.71.51,2.77,1.76.02.39-.01.85-.08,1.38-.23,2.34-.54,4.67-.91,7.01-.37,2.58-.66,5.18-.88,7.81-.77,7.59-.97,15.27-.62,23.04.1,1.2.18,2.18.24,2.93.06.75.16,1.55.29,2.42.07.58.16,1.3.24,2.17.03.63-.09,1.21-.35,1.76-.51.51-1.08.78-1.71.81Z"/>
        <path class="cls-6" d="M760.21,555.01c.09.96.16,1.95.21,2.97.01,1.4-.07,2.93-.26,4.59-.19,1.65-.55,3.15-1.07,4.48-.56,1.48-1.19,2.74-1.9,3.79-.7,1.05-1.68,2.06-2.95,3.04-1.26.98-2.66,1.55-4.2,1.72l-1.23.13c-.43.02-.87,0-1.31-.08-1.9-.3-3.5-1.12-4.8-2.47-1.29-1.34-2.23-2.92-2.79-4.74-.83-2.33-1.31-4.75-1.42-7.27-.08-1.69,0-3.31.21-4.87,0-.1.02-.2.06-.29.08-.25.12-.47.11-.66.62-3.47,2.02-6.56,4.22-9.27,1.06-1.26,2.35-2.17,3.87-2.72.86-.28,1.7-.44,2.52-.48,1.4-.06,2.72.22,3.96.84,2.38,1.34,4.12,3.27,5.2,5.79.81,1.76,1.33,3.6,1.56,5.52ZM757.16,564.59c.48-2.15.68-4.29.58-6.41-.09-1.88-.34-3.69-.76-5.41-.18-.67-.53-1.49-1.06-2.46-.53-.97-1.16-1.84-1.9-2.6-.74-.77-1.52-1.13-2.34-1.09-.48.02-1,.29-1.56.8-1.66,1.82-2.91,4.12-3.75,6.89-.84,2.77-1.2,5.56-1.07,8.36.13,2.9.81,5.46,2.02,7.68.37.76.89,1.39,1.54,1.89.4.27.86.39,1.4.37.44-.02.84-.11,1.22-.27,1.09-.39,2.03-1.06,2.81-2.02,1.38-1.66,2.33-3.57,2.86-5.72Z"/>
        <path class="cls-6" d="M768.69,578.73c-.82.04-1.44-.18-1.84-.64-1.08-1.4-1.66-2.93-1.73-4.57-.05-1.11-.08-2.2-.08-3.26-.04-1.88-.1-3.82-.19-5.8-.05-1.01-.09-1.91-.12-2.68-.09-.91-.16-1.82-.2-2.71-.04-.89-.09-2.04-.16-3.44-.18-3.86-.24-7.78-.17-11.75.06-3.97.42-8.92,1.06-14.86.13-1.36.29-2.41.47-3.14.18-.73.42-1.26.73-1.59.3-.33.71-.62,1.23-.89.71-.32,1.48-.5,2.3-.54.63-.03,1.15.07,1.57.29.42.22.65.82.7,1.78.04.87.04,1.59,0,2.18-.05.58-.15,1.29-.3,2.12-.03.44-.08.92-.15,1.46-.04.2-.06.37-.05.51,0,.19,0,.36-.05.51-.29,3.26-.46,7.17-.52,11.75-.06,4.58-.07,8.8-.04,12.67.82-2.22,1.78-4.33,2.9-6.34,1.12-2.01,2.38-3.69,3.8-5.04,1.42-1.35,2.94-2.06,4.59-2.13,2.22-.1,3.99.85,5.32,2.84,1.33,2,2.04,4.13,2.14,6.4.11,2.32-.18,4.72-.87,7.19-.68,2.48-1.67,4.61-2.94,6.41-1.68,2.4-3.55,4.36-5.61,5.88-2.06,1.52-4.79,2.75-8.18,3.68.03.68-.04,1.31-.2,1.9-.17.59-.7,1.07-1.6,1.45-.1,0-.17.03-.22.08-.52.17-1.05.27-1.58.29ZM771.87,571.9c.71-.42,1.32-.8,1.84-1.14.52-.34,1.01-.71,1.47-1.12,2.55-2.49,4.6-5.34,6.14-8.56,1.31-3.06,2.13-6.22,2.47-9.48,0-.14,0-.32.05-.51.15-.88.21-1.85.16-2.91-.04-.96-.2-1.72-.47-2.26-.27-.54-.69-.83-1.27-.85-.34.02-.7.14-1.07.38-.38.23-.73.48-1.06.74l-.07.08c-1.48,1.47-2.79,3.2-3.94,5.19-1.14,1.99-1.91,3.48-2.3,4.46-.35.89-.7,1.75-1.04,2.59-.53,1.14-.99,2.3-1.37,3.47l.45,9.93Z"/>
        <path class="cls-6" d="M816.54,573.93l-.36.02c-.34.02-.73-.02-1.16-.09-.73-.11-1.42-.37-2.07-.78-.65-.41-1.08-.89-1.3-1.47-.54-2.2-.85-4.39-.95-6.56l-.06-1.31-.18-7.18-2.87,8.77c-.42,1.42-1.1,2.77-2.03,4.05-.93,1.28-2.2,1.95-3.79,2.02-.87.04-1.85-.18-2.93-.66-1.69-.94-2.99-2.31-3.89-4.11-1.07-2.23-1.66-4.59-1.78-7.11-.12-2.7.26-5.34,1.16-7.9.9-2.56,2.27-4.69,4.1-6.4,1.84-1.7,4.1-2.62,6.81-2.74,1.74-.08,3.06.08,3.98.47.91.4,1.62.8,2.12,1.21,0,.05.03.07.08.07.13-1.31.28-2.35.44-3.11.16-.76.32-1.41.49-1.95.44-1.04,1.18-1.77,2.22-2.21.33-.11.72-.18,1.15-.2.68-.03,1.31.06,1.9.28.69.26,1.2.55,1.53.87.33.33.51.83.54,1.5.06,1.35,0,2.75-.17,4.18-.18,1.44-.4,2.86-.68,4.28-.23,1.27-.42,2.51-.56,3.73l-.4,3.94c-.31,3.84-.38,7.67-.2,11.48l.22,3.26c.01.29.02.62,0,.98s-.03.62-.07.77c0,.05-.02.12-.06.22-.03.39-.14.73-.32,1.03-.18.3-.48.51-.91.62ZM802.42,568.41c.77-.04,1.43-.53,1.97-1.47,1.65-4.04,3.33-8.74,5.02-14.1.38-1.13.74-2.24,1.08-3.32.17-.4.25-.86.23-1.39-.02-.43-.2-.92-.54-1.46-.34-.54-.97-.79-1.89-.75-.77.03-1.58.3-2.43.8-.85.5-1.48,1-1.89,1.5-2.69,2.69-4.19,5.88-4.5,9.57-.32,1.56-.43,3.24-.35,5.03.07,1.45.39,2.76.98,3.91.58,1.16,1.36,1.72,2.33,1.67Z"/>
        <path class="cls-6" d="M832.69,571.53c-1.45-.08-2.43-.46-2.92-1.14-.49-.68-.89-1.64-1.19-2.89-.06-.24-.12-.48-.18-.72-.84-3.45-1.34-7.18-1.53-11.19-.25-5.36-.12-10.64.37-15.84.33-5.58,1.22-11.34,2.7-17.26.26-.64.76-1.13,1.49-1.48.74-.35,1.49-.54,2.26-.58,1.79-.08,2.71.51,2.77,1.76.02.39,0,.85-.08,1.38-.23,2.34-.54,4.67-.91,7.01-.37,2.58-.66,5.18-.88,7.81-.77,7.59-.97,15.27-.62,23.04.1,1.2.18,2.18.24,2.93.06.75.15,1.55.29,2.42.07.58.16,1.3.25,2.17.03.63-.09,1.21-.36,1.76-.51.51-1.08.78-1.71.81Z"/>
        <path class="cls-6" d="M843.15,577.28l-.34.02c-.83.04-1.25-.21-1.28-.73-.03-.68.39-1.45,1.25-2.32,1.22-1.34,1.8-2.61,1.75-3.81-.18-.67-.59-1.27-1.21-1.81-.63-.53-.95-1.07-.98-1.59-.06-1.28.61-2.32,2-3.14.88-.49,1.81-.76,2.79-.8l.68-.03c2.05.43,3.11,1.33,3.17,2.68l-.06,1.25c.04.9-.6,2.62-1.91,5.17-1.54,2.63-3.49,4.34-5.86,5.13Z"/>
        <path class="cls-6" d="M879.61,568.37l-.51-.05c-1.17-.14-1.96-.55-2.38-1.23-.42-.68-.72-1.53-.92-2.53-.11-.34-.23-.69-.34-1.07-.66-2.78-1.06-5.74-1.2-8.87l-.08-1.67c-.25-5.36-.08-10.72.5-16.07.4-4.91,1.1-9.8,2.09-14.69.09-.25.15-.47.19-.66.21-.74.42-1.47.62-2.21.26-.59.76-1.06,1.5-1.41.74-.35,1.46-.54,2.19-.57.53-.02.99,0,1.38.08.83.25,1.31.69,1.44,1.31.01.34.03.63.04.87.01.24-.05.58-.17,1.03-.23,2.43-.59,5.13-1.08,8.11-.53,3.36-.94,6.43-1.25,9.21-.06.83-.13,2.72-.21,5.67-.08,2.96-.15,6.04-.19,9.26-.05,3.22-.05,5.37,0,6.43v.29c.08,1.5.22,3.02.44,4.55l.14,1.52c.03.73-.11,1.36-.42,1.91-.18.25-.44.43-.77.54-.33.11-.67.2-1,.26Z"/>
        <path class="cls-6" d="M915.04,568.27l-.36.02c-1.36-.08-2.3-.46-2.81-1.14-.52-.68-.87-1.62-1.07-2.82-.37-1.82-.61-3.89-.72-6.21-.04-.82-.05-1.62-.04-2.39-.03-1.6,0-3.12.08-4.58.15-2.04.17-4.17.07-6.39-.01-.24-.05-.49-.11-.76-.06-.26-.17-.49-.32-.68-.31-.33-.6-.48-.89-.47-.48.02-.95.38-1.4,1.08-.45.7-.86,1.48-1.24,2.34-.37.86-.67,1.59-.88,2.18-.09.25-.15.44-.19.59-.08.29-.23.71-.45,1.25-.34,1.03-.74,2.26-1.21,3.69-.47,1.43-.89,2.74-1.27,3.94-.38,1.21-.61,2-.69,2.39l-.72,3.37.08,1.81c.02.34,0,.65-.07.95-.06.29-.23.57-.51.82-.61.51-1.32.79-2.14.82-1.21.06-2.31-.31-3.32-1.08-.82-1.03-1.31-2.24-1.47-3.64v-.07c-.06-.24-.11-.5-.15-.79-.04-.29-.07-.72-.1-1.3-.16-1.25-.26-2.55-.32-3.91-.14-3.14-.14-6.29,0-9.44,0-2.18.09-4.41.28-6.69.03-.29.07-.59.1-.88.01-.77.1-1.55.26-2.34.06-.68.2-1.32.39-1.91.19-.59.59-1.09,1.2-1.51.66-.37,1.38-.57,2.15-.61.68-.03,1.31.09,1.9.35.53-.02.88.25,1.05.82.17.57.27,1.1.29,1.59l-.02,1.16c-.12,1.65-.22,3.59-.31,5.82-.09,2.23-.16,4.27-.19,6.11-.04,1.84-.07,2.98-.1,3.42l.24,3.55c.9-2.61,1.79-5.19,2.69-7.75.64-1.92,1.04-3.12,1.22-3.61.04-.15.11-.32.19-.52.43-1.13.91-2.25,1.44-3.37.53-1.11,1.21-2.05,2.05-2.82.84-.76,1.91-1.18,3.21-1.24,2.27-.06,3.98.86,5.14,2.74.59,1.18.91,2.47.97,3.87l.05,1.09c.04,1.94-.02,3.88-.17,5.82,0,.97-.03,1.94-.08,2.91,0,.1,0,.22.02.36-.02.68-.04,1.53-.06,2.55-.03,1.02-.03,1.82,0,2.4l.02.36c.07,1.59.22,3.14.43,4.63v.07c.12.48.19.98.22,1.52.03.63-.09,1.19-.36,1.69-.56.51-1.22.78-2,.82Z"/>
        <path class="cls-6" d="M927.87,566.16l-.43.02c-1.16-.09-1.96-.49-2.38-1.2-.42-.71-.75-1.56-.99-2.57-.06-.34-.15-.67-.26-1-.79-3.4-1.27-7.03-1.44-10.9-.23-5.17-.13-10.3.31-15.41.36-4.86,1.01-9.68,1.95-14.46l.67-2.79c.26-.64.77-1.14,1.53-1.49.76-.35,1.55-.54,2.37-.58.43-.02.85,0,1.24.09.93.3,1.42.88,1.46,1.75l-.09,1.31c-.23,2.29-.52,4.57-.85,6.87-.41,2.63-.75,5.29-1.02,7.96-.02.63-.05,1.15-.07,1.56-.03.41-.06.89-.08,1.42-.04.2-.08.41-.11.66.04-.1.23-.24.56-.42.33-.18.73-.37,1.21-.56.47-.19.93-.39,1.35-.61.47-.22.78-.35.93-.41,1.42-.74,2.76-1.53,4.03-2.36.56-.41,1.12-.85,1.68-1.31.7-.52,1.38-1.01,2.04-1.47.28-.16.54-.24.79-.25.39-.02.7.13.93.43.23.31.36.65.37,1.04.02.53-.2,1.02-.66,1.48-3.68,3.07-7.68,5.63-11.99,7.66.76.74,1.45,1.51,2.07,2.3,2.57,3.27,4.85,6.7,6.86,10.29,1.21,2.08,2.67,3.92,4.39,5.54.25.18.55.39.9.61.35.23.66.44.94.65.28.21.47.43.57.66.05.1.08.18.08.25s0,.16.01.25c.02.39-.05.8-.2,1.24-.15.44-.37.77-.65.97-.52.36-1.09.56-1.72.58-.82.04-1.6-.14-2.35-.54-1.6-.99-3-2.21-4.23-3.66-.87-.98-2.07-2.69-3.61-5.13-1.54-2.45-2.94-4.73-4.2-6.85-.16-.23-.31-.47-.47-.7l-.07,3.27c.01,2.42.07,4.79.18,7.11.07,1.5.23,3.02.5,4.55l.22,1.66c.03.63-.12,1.19-.43,1.69-.51.51-1.13.78-1.85.81Z"/>
        <path class="cls-6" d="M957.47,565.83c-1.45-.08-2.43-.46-2.92-1.14-.49-.68-.89-1.64-1.19-2.89-.06-.24-.12-.48-.18-.72-.84-3.45-1.34-7.18-1.53-11.19-.25-5.36-.12-10.64.37-15.84.33-5.58,1.22-11.33,2.7-17.26.26-.64.76-1.13,1.49-1.49.74-.35,1.49-.54,2.26-.57,1.79-.08,2.71.51,2.77,1.76.02.39,0,.85-.08,1.38-.23,2.34-.54,4.67-.91,7.01-.37,2.58-.66,5.18-.88,7.81-.77,7.59-.97,15.27-.62,23.04.1,1.21.18,2.18.24,2.93.06.75.15,1.55.29,2.42.07.58.16,1.3.24,2.17.03.63-.09,1.21-.36,1.76-.51.51-1.08.78-1.71.81Z"/>
        <path class="cls-6" d="M990.6,564.68l-.36.02c-1.36-.08-2.3-.46-2.81-1.14-.52-.68-.87-1.62-1.07-2.82-.31-1.54-.53-3.09-.65-4.65-.12-1.57-.22-3.12-.28-4.67-.16-3.43-.17-6.84-.03-10.24-.96,2.37-1.94,4.76-2.94,7.18-1.73,4.44-3.02,7.57-3.85,9.4-.42,1.33-1.09,2.66-1.99,4.01-.91,1.35-2.1,2.15-3.59,2.41-1.64.07-2.97-.48-4-1.67-1.02-1.19-1.79-2.63-2.3-4.32-.51-1.69-.81-3.36-.88-5-.04-.87.02-2.37.19-4.51.17-2.14.37-4.24.62-6.31.24-2.07.49-3.5.75-4.28.17-.54.58-.98,1.25-1.33.66-.34,1.33-.53,2.01-.56,1.02.05,1.73.26,2.13.63.4.37.62.84.65,1.42.06,1.4-.05,2.62-.34,3.65-.07.54-.14,1.07-.22,1.61-.02.54-.06,1.02-.11,1.46-.05.44-.09.9-.12,1.38-.04.24-.07.54-.11.88-.27,2.68-.46,5.37-.57,8.09l.04.87c.03.77.17,1.58.4,2.41.23.84.62,1.39,1.17,1.65.68-.03,1.18-.3,1.52-.8.34-.5.62-1.04.83-1.64.04-.1.09-.2.13-.29,1.02-2.13,1.83-3.91,2.44-5.34.61-1.43,1.39-3.36,2.35-5.77.43-1.09,1.08-2.83,1.94-5.24.86-2.31,1.7-4.53,2.53-6.65.82-2.12,1.44-3.43,1.85-3.93.4-.75,1.01-1.26,1.82-1.54.33-.11.72-.18,1.15-.2.68-.03,1.31.06,1.9.28.54.22.9.52,1.06.89.16.38.25.81.28,1.3l.03.65c-.05,1.12-.09,2.18-.14,3.2-.22,4.61-.41,9.53-.56,14.76-.05,1.07-.08,2.62-.08,4.65,0,2.04.02,3.68.08,4.93l.05,1.09.22,1.59c.03.63-.12,1.19-.43,1.69-.23.3-.51.51-.84.62-.33.11-.69.18-1.08.19Z"/>
        <path class="cls-6" d="M1006.35,564.47c-1.74.08-3.45-.42-5.12-1.51-1.67-1.08-2.55-2.52-2.63-4.31l.04-.8c.03-.29.16-.57.36-.85.21-.27.45-.42.74-.43.39-.02.66.13.82.44.16.31.27.63.33.96.11.33.22.59.33.78.47.7,1.15,1.23,2.03,1.58.89.35,1.72.5,2.49.47s1.42-.26,1.93-.67c.51-.41.9-.85,1.17-1.32.27-.47.53-1.08.79-1.81-.06-1.4-.34-2.5-.84-3.3-.5-.8-1.08-1.55-1.73-2.24-.46-.51-.9-1.07-1.31-1.68-.26-.33-.64-.72-1.14-1.18-1.06-.92-2.16-2.22-3.3-3.92-1.14-1.69-1.77-3.86-1.9-6.52.07-2.67.94-4.86,2.6-6.58,1.66-1.72,3.68-2.64,6.05-2.75.82-.04,1.67.07,2.56.32,1.42.47,2.5,1.36,3.24,2.68.74,1.32,1.14,2.73,1.21,4.23.04.87-.04,1.57-.23,2.11-.19.54-.65.93-1.36,1.15-.34.01-.6-.13-.78-.44-.18-.31-.31-.68-.38-1.11v-1.6c-.03-.73-.34-1.45-.93-2.17-.59-.72-1.3-1.07-2.12-1.03-1.2.15-2.08.74-2.64,1.75-.56,1.02-.81,2.11-.76,3.27.04.97.26,1.78.66,2.44.39.66.87,1.29,1.43,1.9.26.33.51.63.77.91,1.38,1.54,2.49,2.89,3.34,4.06.85,1.17,1.59,2.43,2.21,3.79.62,1.35.91,2.63.87,3.84.08,2.71-.55,4.86-1.88,6.48-.96,1.11-1.93,1.84-2.88,2.2-.95.36-1.91.61-2.87.75-.05,0-.1,0-.14,0l-1.01.12Z"/>
        <path class="cls-6" d="M1026.6,531.02c.8.5,1.22,1.18,1.25,2.05,0,.05,0,.1,0,.14-.08.49-.1,1-.07,1.53,0,.15-.01.27-.06.37-.19,2.23-.3,4.52-.34,6.84,0,.19,0,.39-.05.58-.17,4.85-.14,9.64.07,14.37l.1,2.25c.01.29.02.66.02,1.12,0,.46-.05.81-.13,1.06-.03.44-.12.82-.28,1.14-.16.32-.47.54-.95.66-.19.06-.38.09-.58.1-.29.01-.61-.02-.95-.1-.78-.11-1.48-.37-2.1-.77-.62-.41-1.05-.9-1.27-1.47-.54-2.2-.88-4.39-1.03-6.56l-.06-1.23c-.07-1.5-.09-3.12-.08-4.86.03-.39.04-.8.02-1.24.02-.53.05-1.09.07-1.67s.04-1.14.07-1.67c.06-.68.1-1.55.1-2.62-.02-1.4.03-2.84.13-4.33.1-1.48.33-2.64.68-3.48.79-1.68,1.94-2.55,3.44-2.62.68-.03,1.34.11,1.98.42ZM1025.1,525.21c-.87.04-1.48-.09-1.83-.39-.35-.3-.54-.71-.56-1.24-.03-.63.3-1.18.98-1.64.68-.47,1.36-.72,2.04-.75,1.18.34,1.78.93,1.82,1.8.03.53-.18,1.03-.62,1.48-.44.46-1.05.7-1.82.74Z"/>
        <path class="cls-6" d="M1043.79,564.07h-1.52c-.68-.12-1.36-.36-2.03-.74s-1.12-.86-1.33-1.43c-.64-2.3-1.02-4.82-1.14-7.57-.1-2.17-.13-4.35-.08-6.53.05-.97.06-1.89.02-2.76-.14-5.17-.04-10.45.29-15.84l-.36.02c-.67.08-1.32.27-1.93.56-.62.29-1.08.81-1.38,1.55-.22.49-.52.75-.91.77-.34.02-.67-.11-1-.39-.33-.28-.5-.63-.52-1.06,0-.19.03-.41.11-.66.52-1.28,1.38-2.18,2.56-2.69,1.19-.51,2.43-.82,3.73-.93l.11-.8c.37-2.49.95-4.93,1.73-7.34.79-2.41,1.83-4.45,3.13-6.13s2.9-2.57,4.78-2.65l1.09.1c1.42.27,2.54.98,3.36,2.13.83,1.15,1.44,2.29,1.83,3.44.11.28.25.57.4.85.42.66.64,1.33.67,2,.02.39-.09.78-.31,1.18-.32.5-.62.75-.91.77-.29.01-.58-.18-.86-.58-.28-.4-.52-.86-.72-1.38-.2-.52-.35-.98-.46-1.36-.11-.29-.19-.47-.24-.57-.12-.43-.31-.92-.58-1.46-.27-.54-.55-1.03-.86-1.45-.31-.42-.59-.65-.83-.69h-.14c-.34.02-.64.18-.89.48-.25.3-.47.58-.65.83-1.17,1.94-1.9,4.11-2.17,6.49-.06.83-.13,1.46-.2,1.9-.04.29-.07.58-.11.88-.03.29-.08.67-.13,1.13-.05.46-.11,1.08-.17,1.86,1.64-.07,3.27-.22,4.88-.44,1.61-.22,3.18-.6,4.7-1.16l.43-.09c.39-.02.7.13.93.43s.35.62.37.96c.03.58-.27,1.05-.88,1.42-1.71.61-3.45,1.03-5.21,1.25-1.76.23-3.55.38-5.39.46-.19,5.33-.26,11.18-.22,17.54.05,6.36.14,10.92.26,13.67.01.29.02.66.02,1.12,0,.46-.02.81-.06,1.06-.03.39-.11.76-.24,1.1-.13.34-.46.6-.98.77Z"/>
      </g>
      <path class="cls-7" d="M1033.1,591.16c-36.5.3-73,.45-109.49.98-22.96.34-45.92,1.03-68.87,1.98-52.06,2.14-104.12,4.41-156.17,6.88-29.4,1.4-58.78,3.24-88.17,5.01-30.98,1.86-61.96,3.81-92.93,5.83-29.97,1.96-59.94,4.08-89.91,6.12-.69.05-1.38,0-2.1-.26,8.25-.99,16.5-2.1,24.76-2.96,20.3-2.1,40.61-4.14,60.92-6.09,16.74-1.61,33.49-3.17,50.24-4.54,23.6-1.94,47.22-3.77,70.83-5.48,19.15-1.39,38.3-2.72,57.47-3.72,34.26-1.79,68.54-3.45,102.81-4.91,19.47-.83,38.96-1.26,58.44-1.68,23.36-.5,46.72-1.07,70.08-1.12,22.57-.05,45.14.28,67.71.86"/>
    </g>
  </g>
</svg>